<?xml version="1.0" encoding="UTF-8" standalone="no"?>
<!--
  Licensed to the Apache Software Foundation (ASF) under one or more
  contributor license agreements.  See the NOTICE file distributed with
  this work for additional information regarding copyright ownership.
  The ASF licenses this file to You under the Apache License, Version 2.0
  (the "License"); you may not use this file except in compliance with
  the License.  You may obtain a copy of the License at

      http://www.apache.org/licenses/LICENSE-2.0

  Unless required by applicable law or agreed to in writing, software
  distributed under the License is distributed on an "AS IS" BASIS,
  WITHOUT WARRANTIES OR CONDITIONS OF ANY KIND, either express or implied.
  See the License for the specific language governing permissions and
  limitations under the License.
-->

<svg
   xmlns:dc="http://purl.org/dc/elements/1.1/"
   xmlns:cc="http://creativecommons.org/ns#"
   xmlns:rdf="http://www.w3.org/1999/02/22-rdf-syntax-ns#"
   xmlns:svg="http://www.w3.org/2000/svg"
   xmlns="http://www.w3.org/2000/svg"
   xmlns:sodipodi="http://sodipodi.sourceforge.net/DTD/sodipodi-0.dtd"
   xmlns:inkscape="http://www.inkscape.org/namespaces/inkscape"
   width="8.7217541in"
   height="1.8056329in"
   viewBox="0 0 837.28843 173.34075"
   version="1.1"
   id="SVGRoot"
   inkscape:version="0.92.3 (2405546, 2018-03-11)"
   sodipodi:docname="daffodil.svg">
  <sodipodi:namedview
     id="base"
     pagecolor="#ffffff"
     bordercolor="#666666"
     borderopacity="1.0"
     inkscape:pageopacity="0.0"
     inkscape:pageshadow="2"
     inkscape:zoom="1.8597786"
     inkscape:cx="378.43576"
     inkscape:cy="-40.240057"
     inkscape:document-units="in"
     inkscape:current-layer="layer1"
     showgrid="false"
     inkscape:window-width="1920"
     inkscape:window-height="1043"
     inkscape:window-x="1600"
     inkscape:window-y="0"
     inkscape:window-maximized="1"
     showguides="false"
     inkscape:measure-start="0,0"
     inkscape:measure-end="0,0"
     inkscape:guide-bbox="true"
     inkscape:object-paths="false"
     fit-margin-top="0.1"
     fit-margin-left="0.1"
     fit-margin-right="0.1"
     fit-margin-bottom="0.1"
     showborder="true"
     inkscape:lockguides="false"
     inkscape:pagecheckerboard="false"
     inkscape:showpageshadow="true"
     units="in">
    <inkscape:grid
       type="xygrid"
       id="grid3893"
       originx="9.0870287"
       originy="-91.78551"
       units="in" />
  </sodipodi:namedview>
  <defs
     id="defs170" />
  <metadata
     id="metadata173">
    <rdf:RDF>
      <cc:Work
         rdf:about="">
        <dc:format>image/svg+xml</dc:format>
        <dc:type
           rdf:resource="http://purl.org/dc/dcmitype/StillImage" />
        <dc:title></dc:title>
        <cc:license
           rdf:resource="Apache License, Version 2.0" />
      </cc:Work>
    </rdf:RDF>
  </metadata>
  <g
     id="layer1"
     inkscape:label="Layer 1"
     transform="translate(9.087025,9.1262689)"
     inkscape:groupmode="layer">
    <g
       aria-label="TM"
       style="font-style:normal;font-variant:normal;font-weight:bold;font-stretch:normal;font-size:18.66666603px;line-height:125%;font-family:sans-serif;-inkscape-font-specification:'sans-serif Bold';letter-spacing:0px;word-spacing:0px;fill:#808080;fill-opacity:1;stroke:none;stroke-width:1px;stroke-linecap:butt;stroke-linejoin:miter;stroke-opacity:1"
       id="text850"
       inkscape:label="Trademark">
      <path
         d="m 803.46204,139.0886 h 4.46614 l 3.09896,7.28255 3.11719,-7.28255 h 4.45703 v 13.60807 h -3.31771 v -9.95312 l -3.13542,7.33724 h -2.22395 l -3.13542,-7.33724 v 9.95312 h -3.32682 z"
         id="path1424"
         inkscape:connector-curvature="0"
         inkscape:label="M" />
      <path
         d="m 789.11568,139.0886 h 12.54167 v 2.65234 h -4.51172 v 10.95573 h -3.50911 v -10.95573 h -4.52084 z"
         id="path1422"
         inkscape:connector-curvature="0"
         inkscape:label="T" />
    </g>
    <g
       transform="matrix(0.47126525,0,0,0.47126525,264.85292,233.94558)"
       aria-label="APACHE"
       style="font-style:normal;font-variant:normal;font-weight:normal;font-stretch:normal;font-size:72.46181488px;line-height:125%;font-family:Montserrat;-inkscape-font-specification:Montserrat;letter-spacing:0px;word-spacing:0px;fill:#c90505;fill-opacity:1;stroke:none;stroke-width:5.43463659px;stroke-linecap:butt;stroke-linejoin:miter;stroke-opacity:1"
       id="text1117-2"
       inkscape:label="Apache">
      <path
         d="m 119.1425,-494.98017 h 34.41936 v 5.36218 h -28.62241 v 17.02852 h 25.57902 v 5.28972 h -25.57902 v 17.68068 h 29.56442 v 5.36217 H 119.1425 Z"
         style="font-style:normal;font-variant:normal;font-weight:300;font-stretch:normal;font-family:Montserrat;-inkscape-font-specification:'Montserrat Light';fill:#c90505;fill-opacity:1;stroke-width:5.43463659px"
         id="path1950"
         inkscape:connector-curvature="0"
         inkscape:label="E" />
      <path
         d="m 61.541029,-494.98017 h 5.796945 v 22.9704 H 97.91686 v -22.9704 h 5.79695 v 50.72327 h -5.79695 v -22.46316 H 67.337974 v 22.46316 h -5.796945 z"
         style="font-style:normal;font-variant:normal;font-weight:300;font-stretch:normal;font-family:Montserrat;-inkscape-font-specification:'Montserrat Light';fill:#c90505;fill-opacity:1;stroke-width:5.43463659px"
         id="path1948"
         inkscape:connector-curvature="0"
         inkscape:label="H" />
      <path
         d="m 47.612513,-483.74859 q -2.970934,-2.97093 -6.956334,-4.63755 -3.912938,-1.73909 -8.043262,-1.73909 -5.652021,0 -10.434501,2.75355 -4.710018,2.68109 -7.463567,7.39111 -2.753549,4.71002 -2.753549,10.28958 0,5.50709 2.753549,10.21711 2.753549,4.71002 7.463567,7.46357 4.78248,2.75355 10.434501,2.75355 4.130324,0 8.043262,-1.59416 3.912938,-1.66662 6.956334,-4.5651 l 3.550629,3.84048 q -3.840476,3.62309 -8.76788,5.72448 -4.854941,2.02893 -10.072192,2.02893 -7.17372,0 -13.18805,-3.4057 -6.014331,-3.47817 -9.5649599,-9.42004 -3.4781671,-5.94187 -3.4781671,-13.04312 0,-7.0288 3.5506289,-12.89821 3.5506291,-5.94187 9.5649591,-9.34757 6.086793,-3.47817 13.332974,-3.47817 5.144789,0 9.999731,1.95647 4.854941,1.95647 8.550494,5.5071 z"
         style="font-style:normal;font-variant:normal;font-weight:300;font-stretch:normal;font-family:Montserrat;-inkscape-font-specification:'Montserrat Light';fill:#c90505;fill-opacity:1;stroke-width:5.43463659px"
         id="path1946"
         inkscape:connector-curvature="0"
         inkscape:label="C" />
      <path
         d="m -2.1812111,-444.2569 -5.7244833,-12.97066 H -35.513646 l -5.652021,12.97066 h -6.159255 l 22.75301,-50.72327 h 6.014331 l 22.6805478,50.72327 z m -30.9411949,-18.33284 h 22.897933 l -11.521428,-26.08625 z"
         style="font-style:normal;font-variant:normal;font-weight:300;font-stretch:normal;font-family:Montserrat;-inkscape-font-specification:'Montserrat Light';fill:#c90505;fill-opacity:1;stroke-width:5.43463659px"
         id="path1944"
         inkscape:connector-curvature="0"
         inkscape:label="A" />
      <path
         d="m -66.589574,-494.98017 q 9.420036,0 14.564825,4.49264 5.21725,4.42017 5.21725,12.53589 0,8.33311 -5.21725,12.97066 -5.144789,4.63756 -14.564825,4.63756 h -13.260512 v 16.08652 h -5.796945 v -50.72327 z m -0.217386,29.27458 q 6.883873,0 10.651887,-3.0434 3.768015,-3.11586 3.768015,-9.05773 0,-5.79694 -3.768015,-8.76788 -3.768014,-3.04339 -10.651887,-3.04339 h -13.043126 v 23.9124 z"
         style="font-style:normal;font-variant:normal;font-weight:300;font-stretch:normal;font-family:Montserrat;-inkscape-font-specification:'Montserrat Light';fill:#c90505;fill-opacity:1;stroke-width:5.43463659px"
         id="path1942"
         inkscape:connector-curvature="0"
         inkscape:label="P" />
      <path
         d="m -99.976354,-444.2569 -5.724486,-12.97066 h -27.60795 l -5.65202,12.97066 h -6.15925 l 22.75301,-50.72327 h 6.01433 l 22.680544,50.72327 z m -30.941196,-18.33284 h 22.89793 l -11.52142,-26.08625 z"
         style="font-style:normal;font-variant:normal;font-weight:300;font-stretch:normal;font-family:Montserrat;-inkscape-font-specification:'Montserrat Light';fill:#c90505;fill-opacity:1;stroke-width:5.43463659px"
         id="path1940"
         inkscape:connector-curvature="0"
         inkscape:label="A" />
    </g>
    <g
       aria-label="Daffodil"
       style="font-style:normal;font-weight:normal;font-size:166.66667175px;line-height:125%;font-family:sans-serif;letter-spacing:0px;word-spacing:0px;fill:#000000;fill-opacity:1;stroke:none;stroke-width:1px;stroke-linecap:butt;stroke-linejoin:miter;stroke-opacity:1"
       id="text827"
       inkscape:label="Daffodil">
      <path
         d="m 742.67443,47.781155 c 2.16667,2.333334 5.33333,4.333334 9.16667,5.666667 v 81.333338 c -4,1.5 -7.5,3.5 -9.16667,5.66666 l 1.66667,12.83334 h 38.33333 l 1.66667,-12.83334 c -1.83334,-2.16666 -5.33334,-4.16666 -9.16667,-5.66666 V 33.281155 c -9.33333,-0.833334 -22.16667,-0.333334 -30.83333,1.666667 z"
         style="font-style:normal;font-variant:normal;font-weight:normal;font-stretch:normal;font-size:166.66667175px;font-family:'Patua One';-inkscape-font-specification:'Patua One'"
         id="path1419"
         inkscape:connector-curvature="0"
         inkscape:label="l" />
      <path
         d="m 696.17967,82.781156 c 2.16666,2.333334 5.33333,4.333334 9.16666,5.666667 v 46.333337 c -4,1.5 -7.5,3.5 -9.16666,5.66666 l 1.66666,12.83334 h 38.33334 l 1.66667,-12.83334 c -1.83334,-2.16666 -5.33334,-4.16666 -9.16667,-5.66666 V 68.281156 c -9.33334,-0.833334 -22.16667,-0.333333 -30.83334,1.666667 z m 6.66666,-36.833334 c 0,9.5 5.33334,12.5 13.83334,12.5 8.5,0 14,-3 14,-12.5 0,-9.5 -5.5,-12.666667 -14,-12.666667 -8.5,0 -13.83334,3.166667 -13.83334,12.666667 z"
         style="font-style:normal;font-variant:normal;font-weight:normal;font-stretch:normal;font-size:166.66667175px;font-family:'Patua One';-inkscape-font-specification:'Patua One'"
         id="path1417"
         inkscape:connector-curvature="0"
         inkscape:label="i" />
      <path
         d="m 645.06506,47.781155 c 2.33334,2.5 6.50001,4.666667 11.33334,6 v 16.500001 c -4.16667,-1 -8.66667,-1.666667 -14,-1.666667 -19.5,0 -39,9.666667 -39,44.333331 0,29.83334 10.33333,41.66667 34.16666,41.66667 7.83334,0 16.33334,-3.16666 21.00001,-7.16667 0.33333,2.66667 2.83333,6.16667 5,7.16667 8.33333,0 18.16666,-1.5 25.33333,-5.33333 v -13.16667 c -2.66667,-1.33333 -5.83333,-2.33333 -9.16667,-2.83333 V 33.281155 c -9.33333,-0.833334 -24.33333,-0.333334 -33,1.666667 z m -4,89.833335 c -9,0 -13.66666,-6.33333 -13.66666,-25.66667 0,-15.83333 3.33333,-26.33333 15.33333,-26.33333 4.16667,0 8.83334,0.5 13.66667,1.666666 v 44.666664 c -4,3.83334 -8.83334,5.66667 -15.33334,5.66667 z"
         style="font-style:normal;font-variant:normal;font-weight:normal;font-stretch:normal;font-size:166.66667175px;font-family:'Patua One';-inkscape-font-specification:'Patua One'"
         id="path1415"
         inkscape:connector-curvature="0"
         inkscape:label="d" />
      <path
         d="m 514.85282,111.94782 c 0,29 12.5,42.66667 38.83334,42.66667 26.5,0 41.16667,-16.66667 41.16667,-44.33333 0,-29.16667 -12.66667,-41.666671 -39.16667,-41.666671 -26.33334,0 -40.83334,15.500001 -40.83334,43.333331 z m 24,-1 c 0,-18.999997 5.5,-25.33333 15.66667,-25.33333 10.16667,0 16.33334,7 16.33334,26 0,18.83333 -5.5,26 -16,26 -9.83334,0 -16.00001,-7.83333 -16.00001,-26.66667 z"
         style="font-style:normal;font-variant:normal;font-weight:normal;font-stretch:normal;font-size:166.66667175px;font-family:'Patua One';-inkscape-font-specification:'Patua One'"
         id="path1413"
         inkscape:connector-curvature="0"
         inkscape:label="o" />
      <path
         d="m 453.86454,86.781156 h 7.33334 v 48.000004 c -4,1.5 -7.5,3.5 -9.16667,5.66666 l 1.66667,12.83334 h 46.16666 l 1.66667,-12.83334 c -3.33333,-3 -10.33333,-5.16666 -17,-6.5 V 86.781156 h 25.5 V 71.447823 h -25.5 v -6.333334 c 0,-12.666667 3.5,-16.166667 11.66667,-16.166667 1.16666,0 2.33333,0.166667 3.33333,0.333333 0.16667,4.5 1.66667,7.833334 3.16667,10.666667 h 14 c 2.5,-4 5,-14 4.16666,-19.166667 -5.66666,-4.166667 -14.66666,-8.833334 -27.5,-8.833334 -23.83333,0 -32.16666,12.833334 -32.16666,34.833335 v 4.666667 c -3.5,0.333333 -7.16667,2 -9.16667,3.833333 z"
         style="font-style:normal;font-variant:normal;font-weight:normal;font-stretch:normal;font-size:166.66667175px;font-family:'Patua One';-inkscape-font-specification:'Patua One'"
         id="path1411"
         inkscape:connector-curvature="0"
         inkscape:label="f" />
      <path
         d="m 390.06245,86.781156 h 7.33333 v 48.000004 c -4,1.5 -7.5,3.5 -9.16666,5.66666 l 1.66666,12.83334 h 46.16667 l 1.66667,-12.83334 c -3.33334,-3 -10.33334,-5.16666 -17,-6.5 V 86.781156 h 25.5 V 71.447823 h -25.5 v -6.333334 c 0,-12.666667 3.5,-16.166667 11.66666,-16.166667 1.16667,0 2.33334,0.166667 3.33334,0.333333 0.16666,4.5 1.66666,7.833334 3.16666,10.666667 h 14 c 2.5,-4 5,-14 4.16667,-19.166667 -5.66667,-4.166667 -14.66667,-8.833334 -27.5,-8.833334 -23.83333,0 -32.16667,12.833334 -32.16667,34.833335 v 4.666667 c -3.5,0.333333 -7.16666,2 -9.16666,3.833333 z"
         style="font-style:normal;font-variant:normal;font-weight:normal;font-stretch:normal;font-size:166.66667175px;font-family:'Patua One';-inkscape-font-specification:'Patua One'"
         id="path1409"
         inkscape:connector-curvature="0"
         inkscape:label="f" />
      <path
         d="m 325.44266,97.281157 c 1,-2.333334 1.83334,-7.5 2,-10.833334 2.83334,-0.833333 5.33334,-1 8.5,-1 9.33334,0 13.83334,4.333334 13.83334,13 v 7.999997 h -18.16667 c -20.33333,0 -29.5,9.83334 -29.5,23.66667 0,16.16667 13,24.5 27,24.5 16.16667,0 23.16667,-6.33333 26,-10.5 1.16667,6.16667 2.83333,10.5 2.83333,10.5 15.83334,0 24.33334,-4 24.33334,-4 v -14.5 c -2.66667,-1.33333 -5.83334,-2.16667 -9.16667,-2.83333 V 97.781157 c 0,-21.500001 -11,-29.166668 -31.33333,-29.166668 -13.66667,0 -27,3.833334 -35.33334,8.333334 -0.66666,8.333333 0.5,16 2.66667,20.333334 z M 336.276,137.61449 c -6.83334,0 -10.16667,-4.16667 -10.16667,-9.5 0,-5.66667 3.66667,-9.16667 12,-9.16667 H 349.776 v 13.66667 c -2,2 -6.5,5 -13.5,5 z"
         style="font-style:normal;font-variant:normal;font-weight:normal;font-stretch:normal;font-size:166.66667175px;font-family:'Patua One';-inkscape-font-specification:'Patua One'"
         id="path1407"
         inkscape:connector-curvature="0"
         inkscape:label="a" />
      <path
         d="m 241.01297,153.28116 c 30.66667,0 53,-15.16667 53,-55.833337 0,-40.000001 -23.66666,-59.166668 -58.33333,-59.166668 h -37.16667 l -1.66667,13.833334 c 1.66667,2.166666 5.16667,4.166666 9.16667,5.666667 v 76.166664 c -4,1.5 -7.5,3.33334 -9.16667,5.5 l 1.66667,13.83334 z m -11,-18.16667 V 56.447822 h 7.5 c 18.83334,0 31.5,10.666667 31.5,42.833335 0,30.166663 -12.83333,35.833333 -27,35.833333 z"
         style="font-style:normal;font-variant:normal;font-weight:normal;font-stretch:normal;font-size:166.66667175px;font-family:'Patua One';-inkscape-font-specification:'Patua One'"
         id="path1405"
         inkscape:connector-curvature="0"
         inkscape:label="D" />
    </g>
    <g
       id="g838"
       inkscape:label="Flower">
      <path
         inkscape:label="Petals"
         inkscape:connector-curvature="0"
         d="M 88.483131,77.377436 39.624957,49.169156 C 28.960703,43.012146 38.629184,10.986286 45.548355,3.0122264 56.779591,0.34381645 88.483141,8.6468464 88.483141,20.960856 l -1e-5,56.41658 m 0,0 -48.858177,28.208284 C 28.960711,111.74274 6.0597349,87.356646 2.6135729,77.377436 5.9182899,66.316696 28.960703,43.012146 39.624957,49.169156 l 48.858174,28.20828 m 0,0 V 133.794 c 0,12.31402 -32.56945,19.9538 -42.93478,17.94866 -7.926535,-8.39234 -16.587658,-39.99993 -5.923411,-46.15693 L 88.483131,77.377436 m 0,0 48.858169,28.208284 c 10.66426,6.15701 0.99578,38.18287 -5.9234,46.15693 -11.23123,2.66842 -42.934769,-5.63463 -42.934769,-17.94865 V 77.377436 m 0,0 48.858179,-28.20828 c 10.66425,-6.15701 33.56522,18.22906 37.01138,28.20828 -3.30471,11.06074 -26.34714,34.365304 -37.01138,28.208284 L 88.483131,77.377436 m 0,0 v -56.41657 c 0,-12.3140196 32.569449,-19.9537996 42.934779,-17.9486496 7.92653,8.3923296 16.58765,39.9999296 5.9234,46.1569296 l -48.858179,28.20829"
         style="display:inline;fill:#ffcc00;fill-rule:evenodd;stroke:#000000;stroke-width:4;stroke-linecap:butt;stroke-linejoin:miter;stroke-miterlimit:4;stroke-dasharray:none;stroke-opacity:1"
         id="path4269-9-0" />
      <path
         inkscape:label="Petal Details"
         inkscape:connector-curvature="0"
         d="m 88.483131,77.377436 -51.177177,-1e-5 m 51.177177,1e-5 -25.58859,44.320744 M 88.483131,77.377436 114.0717,121.69818 M 88.483131,77.377436 H 139.6603 m -51.177169,0 25.588599,-44.32073 m -25.588599,44.32073 -25.58859,-44.32074"
         style="display:inline;opacity:0.25;fill:#000000;fill-rule:evenodd;stroke:#000000;stroke-width:5;stroke-linecap:round;stroke-linejoin:miter;stroke-miterlimit:4;stroke-dasharray:none;stroke-opacity:1"
         id="path4319-6-61" />
      <path
         inkscape:label="Cup Outside"
         transform="matrix(0.91529468,0.91380226,-0.91380226,0.91529468,102.21848,-169.68131)"
         d="m 145.96653,161.20567 c -0.37313,0.37313 -1.75885,4.49778 -2.19111,4.80045 -0.43225,0.30267 -4.7821,0.19411 -5.26035,0.41712 -0.47825,0.22301 -3.19111,3.62497 -3.70082,3.76154 -0.50971,0.13658 -4.5601,-1.45317 -5.08578,-1.40718 -0.52567,0.046 -4.23848,2.31493 -4.76415,2.26894 -0.52568,-0.046 -3.78808,-2.92518 -4.29779,-3.06176 -0.5097,-0.13657 -4.77462,0.72568 -5.25286,0.50267 -0.47825,-0.22301 -2.55916,-4.04437 -2.99141,-4.34704 -0.43226,-0.30267 -4.73488,-0.9511 -5.10801,-1.32423 -0.37313,-0.37313 -1.02156,-4.67575 -1.32423,-5.108 -0.30267,-0.43226 -4.12403,-2.51317 -4.34704,-2.99141 -0.22301,-0.47825 0.63924,-4.74317 0.50267,-5.25287 -0.13658,-0.50971 -3.015766,-3.77211 -3.061757,-4.29778 -0.04599,-0.52568 2.222947,-4.23848 2.268937,-4.76416 0.046,-0.52568 -1.543755,-4.57607 -1.40718,-5.08578 0.13658,-0.5097 3.53853,-3.22257 3.76154,-3.70082 0.22301,-0.47825 0.11446,-4.8281 0.41712,-5.26035 0.30267,-0.43226 4.42732,-1.81798 4.80045,-2.19111 0.37313,-0.37313 1.75886,-4.49778 2.19111,-4.80045 0.43226,-0.30267 4.78211,-0.19411 5.26036,-0.41712 0.47824,-0.22301 3.19111,-3.62497 3.70082,-3.76154 0.5097,-0.13658 4.56009,1.45317 5.08577,1.40718 0.52568,-0.046 4.23848,-2.31493 4.76416,-2.26894 0.52568,0.046 3.78808,2.92518 4.29778,3.06176 0.50971,0.13657 4.77462,-0.72568 5.25287,-0.50267 0.47825,0.22301 2.55916,4.04437 2.99141,4.34704 0.43226,0.30266 4.73487,0.9511 5.108,1.32423 0.37313,0.37313 1.02157,4.67575 1.32424,5.108 0.30266,0.43226 4.12403,2.51317 4.34703,2.99141 0.22301,0.47825 -0.63924,4.74316 -0.50266,5.25287 0.13657,0.50971 3.01576,3.7721 3.06175,4.29778 0.046,0.52568 -2.22295,4.23848 -2.26894,4.76416 -0.046,0.52568 1.54376,4.57607 1.40719,5.08578 -0.13658,0.5097 -3.53854,3.22257 -3.76155,3.70082 -0.22301,0.47824 -0.11445,4.82809 -0.41712,5.26035 -0.30267,0.43225 -4.42732,1.81798 -4.80045,2.19111 z"
         inkscape:randomized="0"
         inkscape:rounded="0.1"
         inkscape:flatsided="false"
         sodipodi:arg2="0.95993109"
         sodipodi:arg1="0.78539816"
         sodipodi:r2="28.470093"
         sodipodi:r1="26.192486"
         sodipodi:cy="142.68478"
         sodipodi:cx="127.44565"
         sodipodi:sides="18"
         id="path5216"
         style="display:inline;fill:#ff6600;stroke:#000000;stroke-width:3.09270239;stroke-miterlimit:4;stroke-dasharray:none"
         sodipodi:type="star" />
      <circle
         inkscape:label="Cup Inside"
         transform="rotate(42.709842)"
         r="21.418236"
         cy="-3.1600645"
         cx="117.50127"
         id="path5220"
         style="display:inline;fill:#000000;fill-opacity:0.5;stroke:#000000;stroke-width:4;stroke-miterlimit:4;stroke-dasharray:none" />
    </g>
  </g>
</svg>
